<svg xmlns="http://www.w3.org/2000/svg" style="--fox-primary:#DF6D23;--fox-dark:#1B1512;--fox-light:#F4E7C5" viewBox="190.98 104.54 652.66 830.4"><path fill="var(--fox-primary)" d="m687.563 104.625 3.316-.086c3.908.577 5.358 1.662 8.121 4.461 5.742 8.34 9.76 17.438 13 27l.71 2.048C727.468 180.932 731.519 229.087 725 274l-.375 2.708c-3.557 24.972-10.784 49.733-20.75 72.91-1.818 4.953-.024 9.348 2.066 13.929q1.291 2.611 2.621 5.203l1.456 2.866c14.185 27.461 30.972 54.94 51.864 77.863C763 451 763 451 763.188 453.688c-3.108 6.051-10.13 8.364-16 11.062q-2.85 1.334-5.696 2.672l-2.833 1.326C716.8 479.039 696.673 490.576 678 506l-1.945 1.605A757 757 0 0 0 672 511c8.118 26.956 33.796 40.721 56.36 53.884 35.738 20.889 68.118 46.648 88.622 83.3a416 416 0 0 0 3.065 5.347c9.964 17.55 16.088 36.967 20.14 56.657l.507 2.447c8.781 44.643-2.583 93.07-27.538 130.728C785.504 883.926 748.113 908.178 702 924l-2.128.74c-5.22 1.767-10.487 3.099-15.872 4.26l-3.21.692c-36.568 7.479-75.09 6.395-111.79.308l-3.562-.567c-37.632-6.08-73.376-18.316-108.813-32.058C431.617 887.677 406.413 878.098 380 873l-1.928-.388c-12.046-2.393-23.684-3.094-35.947-2.987l-2.682.008c-13.649.048-26.957.892-40.49 2.71-6.296.8-12.614 1.037-18.953.657-1-1-1-1-1.367-4.93.077-5.888 2.413-10.144 5.242-15.195l1.507-2.775c10.985-19.915 24.923-38.27 40.633-54.686 2.53-2.676 4.442-5.08 5.985-8.414l-2.457-3.086A263 263 0 0 1 308 752l-1.464-2.518C288.419 718.147 275.796 683.752 270 648l-.419-2.479c-4.102-24.98-4.245-51.466-.581-76.521l.309-2.238c2.228-15.905 6.058-31.516 11.167-46.74 1.072-3.247 1.524-5.54 1.524-9.022l-1.47-.772C266.13 502.62 252.51 494.083 239 485l-2.266-1.516A634 634 0 0 1 223 474l-2.328-1.652c-27.046-19.3-27.046-19.3-29.692-25.887.027-3.4 1.107-4.345 3.458-6.774l2.496-2.617c2.97-2.994 5.972-5.957 8.968-8.927l2.098-2.08 2.124-2.103c4.534-4.521 8.726-9.166 12.685-14.206 2.091-2.629 4.26-5.158 6.471-7.686 11.476-13.146 21.548-27.301 31.196-41.83a116 116 0 0 1 3.275-4.559c3.388-4.567 3.388-4.567 4.382-10.042-1.564-5.021-3.375-9.916-5.258-14.824-3.425-9.243-6.34-18.505-8.75-28.063l-.829-3.216c-4.732-19.427-5.84-38.536-5.733-58.471l.009-3.665c.147-39.511 4.253-98.639 34.303-128.523 4.714-2.828 9.205-2.588 14.502-1.295 2.52.825 4.973 1.748 7.435 2.733l2.745 1.076C338.453 124.315 365.826 147 391 170l3.016 2.7C410.828 187.84 429.75 206.5 440 227a318 318 0 0 0 18.379-2.02c8.367-1.088 16.63-1.333 25.058-1.292l2.206.002c16.674.043 33.1 1.483 49.357 5.31l.66-2.004c1.793-4.008 4.222-7.376 6.778-10.934l1.627-2.277c12.494-17.362 26.64-32.534 41.685-47.722l2.578-2.618C594.235 157.53 600.45 152.19 607 147l3.215-2.61c19.51-15.338 41.318-29.075 64.785-37.39l3.004-1.129c3.293-.957 6.132-1.206 9.558-1.246"/><path fill="var(--fox-dark)" d="m687.563 104.625 3.316-.086c3.908.577 5.358 1.662 8.121 4.461 5.742 8.34 9.76 17.438 13 27l.71 2.048C727.468 180.932 731.519 229.087 725 274l-.375 2.708c-3.557 24.972-10.784 49.733-20.75 72.91-1.818 4.953-.024 9.348 2.066 13.929q1.291 2.611 2.621 5.203l1.456 2.866c14.185 27.461 30.972 54.94 51.864 77.863C763 451 763 451 763.188 453.688c-3.108 6.051-10.13 8.364-16 11.062q-2.85 1.334-5.696 2.672l-2.833 1.326C716.8 479.039 696.673 490.576 678 506l-1.945 1.605A757 757 0 0 0 672 511c8.118 26.956 33.796 40.721 56.36 53.884 35.738 20.889 68.118 46.648 88.622 83.3a416 416 0 0 0 3.065 5.347c9.964 17.55 16.088 36.967 20.14 56.657l.507 2.447c8.781 44.643-2.583 93.07-27.538 130.728C785.504 883.926 748.113 908.178 702 924l-2.128.74c-5.22 1.767-10.487 3.099-15.872 4.26l-3.21.692c-36.568 7.479-75.09 6.395-111.79.308l-3.562-.567c-37.632-6.08-73.376-18.316-108.813-32.058C431.617 887.677 406.413 878.098 380 873l-1.928-.388c-12.046-2.393-23.684-3.094-35.947-2.987l-2.682.008c-13.649.048-26.957.892-40.49 2.71-6.296.8-12.614 1.037-18.953.657-1-1-1-1-1.367-4.93.077-5.888 2.413-10.144 5.242-15.195l1.507-2.775c10.985-19.915 24.923-38.27 40.633-54.686 2.53-2.676 4.442-5.08 5.985-8.414l-2.457-3.086A263 263 0 0 1 308 752l-1.464-2.518C288.419 718.147 275.796 683.752 270 648l-.419-2.479c-4.102-24.98-4.245-51.466-.581-76.521l.309-2.238c2.228-15.905 6.058-31.516 11.167-46.74 1.072-3.247 1.524-5.54 1.524-9.022l-1.47-.772C266.13 502.62 252.51 494.083 239 485l-2.266-1.516A634 634 0 0 1 223 474l-2.328-1.652c-27.046-19.3-27.046-19.3-29.692-25.887.027-3.4 1.107-4.345 3.458-6.774l2.496-2.617c2.97-2.994 5.972-5.957 8.968-8.927l2.098-2.08 2.124-2.103c4.534-4.521 8.726-9.166 12.685-14.206 2.091-2.629 4.26-5.158 6.471-7.686 11.476-13.146 21.548-27.301 31.196-41.83a116 116 0 0 1 3.275-4.559c3.388-4.567 3.388-4.567 4.382-10.042-1.564-5.021-3.375-9.916-5.258-14.824-3.425-9.243-6.34-18.505-8.75-28.063l-.829-3.216c-4.732-19.427-5.84-38.536-5.733-58.471l.009-3.665c.147-39.511 4.253-98.639 34.303-128.523 4.714-2.828 9.205-2.588 14.502-1.295 2.52.825 4.973 1.748 7.435 2.733l2.745 1.076C338.453 124.315 365.826 147 391 170l3.016 2.7C410.828 187.84 429.75 206.5 440 227a318 318 0 0 0 18.379-2.02c8.367-1.088 16.63-1.333 25.058-1.292l2.206.002c16.674.043 33.1 1.483 49.357 5.31l.66-2.004c1.793-4.008 4.222-7.376 6.778-10.934l1.627-2.277c12.494-17.362 26.64-32.534 41.685-47.722l2.578-2.618C594.235 157.53 600.45 152.19 607 147l3.215-2.61c19.51-15.338 41.318-29.075 64.785-37.39l3.004-1.129c3.293-.957 6.132-1.206 9.558-1.246m-15.25 34.625-1.977 1.067C662.11 144.887 654.546 150.4 647 156l-1.854 1.37c-7.408 5.5-14.357 11.384-21.146 17.63a709 709 0 0 1-3.812 3.313c-24.152 21.156-46.022 45.299-63.938 72l-1.231 1.83c-2.084 3.178-3.754 6.27-5.019 9.857l-3.777-1.207c-20.036-6.281-39.216-9.025-60.223-9.043l-2.213-.002c-11.511.017-22.54.682-33.787 3.252l-2.735.617a828 828 0 0 0-16.19 3.88A132 132 0 0 1 424 261c-.427-.73-.853-1.46-1.293-2.21-11.69-19.525-25.765-37.566-41.285-54.185a224 224 0 0 1-6.047-6.792C369.126 190.624 362.232 184.178 355 178q-1.527-1.338-3.05-2.68C325.313 150.526 325.313 150.526 293 138c-8.365 19.231-12.531 39.373-16 60l-.58 3.368c-1.572 10.204-1.726 20.267-1.68 30.574.01 2.856 0 5.712-.013 8.568-.028 36.13 6.918 74.884 26.253 105.931 1.02 2.559 1.02 2.559.602 4.872-2.349 3.99-5.187 7.519-8.082 11.125-4.334 5.48-8.606 10.971-12.625 16.687C268.493 396.688 255.642 414.252 241 430a967 967 0 0 0-5.492 6.309A96 96 0 0 1 231 441c1.458 3.63 3.246 5.159 6.477 7.305l2.723 1.835L243 452q2.545 1.75 5.086 3.508c46.822 32.079 94.478 57.536 147.644 77.39 20.147 7.533 35.87 17.364 52.606 30.774C461.049 573.727 474.288 582.517 490 587l1.869.538c4.226.916 8.574.69 12.881.712l2.922.063c6.167.033 10.712-.727 16.328-3.313 1.296-1.066 1.296-1.066 1.063-3.562L525 579l-3.332-1.652C499.648 566.205 499.648 566.205 494 556l-1.687-2.312c-1.76-3.605-1.98-6.794-1.313-10.688 2.95-6.269 7.944-9.276 14.133-11.906 16.042-5.75 33.905-6.273 49.867-.094a259 259 0 0 1 6 4h2c.083-2.208.14-4.416.188-6.625l.105-3.727c-.132-5.078-1.35-9.883-2.467-14.82-1.276-5.911-2.211-11.868-3.134-17.842-.317-2.052-.645-4.102-.973-6.152-1.99-12.629-2.899-25.11-2.907-37.896l-.037-3.276C553.746 428.307 557.03 411.021 569 399c10.977-9.655 21.883-10.863 36-10 8.768 1.161 16.853 6.136 22.582 12.855 1.106 1.645 1.106 1.645 2.418 4.145-5.673 2.454-10.818 4.462-17 5l-1.023 2.703-1.352 3.547-1.336 3.516c-2.903 7.285-2.903 7.285-7.289 9.234l-2.5 1.875c-7.515 5.041-16.324 6.552-25.2 6.852L572 439c-5.744 11.489-3.394 30.555-3.375 43.125l-.004 2.977c.002 14.581 1.158 28.23 3.969 42.555 1.702 9.726.777 18.457-3.59 27.343l-1.11 2.293c-4.123 7.191-10.758 11.63-17.281 16.488-2.993 2.267-5.793 4.739-8.609 7.219.573 2.867.861 3.861 3 6 11.826 1.335 22.87-4.915 32-12 13.329-11.452 23.28-25.564 33.41-39.785 14.008-19.646 29.522-37.465 48.934-51.965a238 238 0 0 0 4.683-3.656C681.072 466.08 699.525 454.64 719 445q-1.434-2.283-2.875-4.562l-1.953-3.094a197 197 0 0 0-4.406-6.5c-6.217-8.793-10.998-18.043-15.724-27.71a427 427 0 0 0-11.917-22.572l-1.548-2.738c-2.089-3.65-4.178-7.24-6.55-10.715l-1.972-2.894-1.837-2.594c-1.558-3.353-1.182-5.1-.218-8.621a136 136 0 0 1 3.625-7.25c30.546-59.227 33.31-134.283 13.656-197.41A324 324 0 0 0 683 136c-4.418 0-6.931 1.205-10.687 3.25M310 523c-4.837 12.77-8.07 25.373-10.582 38.778-.347 1.845-.71 3.686-1.078 5.527-4.913 25.108-4.53 54.693.66 79.695l.618 2.99C309.166 694.825 329.427 733.664 357 770c6.258-4.15 6.258-4.15 12.457-8.387C396.704 742.822 426.189 731.347 459 727l2.082-.292c8.085-.982 16.214-.894 24.346-.893 2.539-.002 5.077-.02 7.615-.04 16.53-.059 32.457 1.974 48.707 4.85q3.865.683 7.734 1.352l3.367.596c3.093.42 6.032.504 9.149.427l1.469-3.262c11.327-24.824 25.51-45.45 51.698-55.772 5.108-1.741 10.347-2.686 15.645-3.654l3.292-.642c7.614-1.433 15.163-2.223 22.896-2.67l-2.79 1.582C627.216 684.162 605.47 706.115 593 735c-.793 2.85-.793 2.85-1 5 5.69 2.541 11.48 4.612 17.375 6.625a1080 1080 0 0 1 22.102 7.846c33.52 12.285 76.03 25.403 110.48 9.775 4.52-2.15 8.875-4.467 13.043-7.246-10.483 17.645-22.64 26.75-42.55 32.273-34.917 7.355-71.687-1.608-104.824-12.424C565.836 763.336 525.049 754.821 481 754l-4.797-.125c-49.355-.78-93.611 27.801-128.484 60.617a131 131 0 0 1-5.852 5.102c-7.198 6.04-12.47 13.78-17.867 21.406 2.84 1.42 4.677.327 7.617-.453 4.423-1.015 8.86-1.3 13.383-1.547 1.066-.066 2.132-.131 3.23-.2 45.684-1.47 95.067 21.593 137.044 37.031 26.887 9.987 26.887 9.987 54.476 17.731l3.631.859C583.715 903.734 623.745 908.526 665 902l2.202-.34c11.205-1.793 22.03-5.157 32.798-8.66l2.113-.683c42.347-13.97 75.577-43.527 95.727-82.986 6.393-12.844 9.894-26.415 13.16-40.331l.602-2.403c1.713-7.433 1.783-14.806 1.773-22.41l-.002-2.066c-.044-12.066-1.278-23.439-4.373-35.121l-.666-2.563c-3.08-11.613-7.063-22.644-12.334-33.437l-1.027-2.113c-6.671-13.54-14.578-25.617-24.907-36.664-1.857-1.998-3.584-4.054-5.316-6.16-15.915-18.137-38.64-29.984-59.546-41.29-12.95-7.02-24.515-14.513-35.204-24.773l-2.371-2.215C660.315 550.767 654.826 542.88 650 534c-6.383 6.304-12.393 12.956-18.25 19.75-3.482 4.012-7.117 7.875-10.75 11.75-5.292 5.646-10.554 11.3-15.465 17.285-3.798 4.585-7.97 8.403-12.535 12.215l-2.242 2.008c-10.595 9.135-23.644 12.963-36.925 16.503-1.493.398-2.98.818-4.466 1.243-6.54 1.63-13.161 1.386-19.857 1.26l-2.412-.041-2.172-.055c-2.148.003-2.148.003-4.926 1.082-30.044 2.248-55.581-5.918-78.562-25.312-7.751-6.684-15.218-13.696-22.653-20.727-10.284-9.68-21.213-18.221-32.723-26.399l-2.114-1.503-2.038-1.43-1.777-1.248c-6.144-3.978-10.583-6.014-17.828-6.873l-5.082-.69-2.652-.342c-15.29-1.99-29.952-4.424-44.571-9.476"/><path fill="var(--fox-light)" d="m310 523 3.188 1.102c9.095 2.936 18.075 5.05 27.55 6.28.864.116 1.728.23 2.617.35a513 513 0 0 0 13.077 1.56C368.677 533.747 377.15 537.664 387 545l1.82 1.331A267 267 0 0 1 400 555l1.612 1.316c9.57 7.863 18.644 16.248 27.638 24.758 23.21 21.865 48.23 36.767 81.125 36.114q2-.024 4-.042 4.813-.051 9.625-.146c-2.644 5.868-5.419 10.014-10.062 14.438l-1.728 1.688c-4.367 4.211-8.979 8.057-13.722 11.839-7.494 6.13-13.519 13.453-19.488 21.035l-2.254 2.809C463.41 685.902 453.17 706.659 449 728l-1.902.44C426.912 733.16 408.27 739.152 390 749l-3.508 1.863c-7.71 4.241-14.826 9.047-21.896 14.277l-2.076 1.516-1.841 1.37C359 769 359 769 356 769c-1.328-1.32-1.328-1.32-2.68-3.2l-1.545-2.13c-.544-.779-1.089-1.556-1.65-2.357l-1.734-2.449C322.218 721.46 303.478 680.432 297 635l-.315-2.196c-.958-7.92-.871-15.893-.87-23.86-.002-2.477-.02-4.953-.04-7.43-.081-23.103 3.981-45.34 10.225-67.514.315-1.118.63-2.235.953-3.387 1.874-6.44 1.874-6.44 3.047-7.613M467.18 753.842c8.678-.54 14.916-.433 21.82 5.158a421 421 0 0 0 5.375 3.312C516.421 776.39 529.888 796.041 537 821v1c-7.699-.362-15.352-.91-23.016-1.734-17.093-1.827-33.766-2.679-50.984-2.266l3.078 1.469c27.657 13.386 54.863 34.193 65.328 64.191C532 886 532 886 532 890c-6.697-.532-12.479-1.87-18.812-4.063l-2.998-1.017c-14.828-5.093-29.537-10.533-44.26-15.92l-2.718-.993a3119 3119 0 0 1-13.875-5.106c-11.057-4.086-22.13-7.842-33.462-11.089l-4.424-1.281C381.334 841.845 355.255 836.72 324 842c2.831-5.663 6.472-9.948 10.77-14.582a138 138 0 0 0 5.293-6.106c3.297-3.862 7.061-7.045 10.937-10.312l2.77-2.43c14.038-12.248 29.423-22.749 45.23-32.57l1.778-1.12c20.23-12.648 42.726-19.325 66.403-21.038M384 459l1.899 1.066c14.505 8.219 27.58 17.96 40.101 28.934l2.473 2.133c5.437 4.775 10.587 9.827 15.714 14.93l2.017 2.002c4.467 4.482 8.687 9.124 12.796 13.935l1.433 1.67a1078 1078 0 0 1 3.942 4.643l1.426 1.679c2.953 3.49 5.806 7.042 8.637 10.633 7.215 8.836 15.73 16.078 25.062 22.613 2.156 1.52 4.196 3.111 6.25 4.762 5.885 4.476 12.693 7.636 19.25 11 .14 2.39.14 2.39 0 5-8.268 6.43-21.151 4.65-31 4-4.654-.784-8.687-2.105-13-4l-3.402-1.473c-11.56-5.402-21.3-12.916-31.28-20.767-17.51-13.766-35.228-23.53-56.154-31.126-15.632-5.686-31.069-11.63-46.164-18.634l-2.997-1.376c-28.163-12.986-54.08-28.999-79.878-46.124l-3.008-1.995c-5.501-3.677-10.879-7.462-16.117-11.505 2.18-3.27 2.572-3.473 6.121-4.5l2.551-.746 2.766-.754 2.892-.79A506 506 0 0 1 265 442l2.27-.565C305.6 432.423 350.064 439.766 384 459M681.612 443.74c2.516.01 5.032 0 7.548-.013 8.476-.007 16.556.235 24.84 2.273-2.059 2.218-3.991 3.692-6.668 5.094l-2.182 1.165-2.338 1.241C687.91 461.608 674.434 471.684 661 482l-2.805 2.148c-6.723 5.263-13 10.986-19.195 16.852l-2.82 2.656c-10.522 10.193-18.89 21.86-27.405 33.723C601.354 547.712 593.743 557.731 585 567l-2.176 2.371c-8.862 9.335-20.53 17.55-33.824 18.067-2.599-.005-3.674-.208-5.813-1.715C542 584 542 584 542.141 581.977c1.958-4.504 7.14-7.452 11.004-10.27 14.122-10.342 18.85-21.18 21.667-38.207 4.757-28.231 18.808-55.177 42.375-72.125 19.885-13.498 40.787-17.756 64.425-17.636"/><path fill="var(--fox-dark)" d="M314 187c5.259 4.293 9.67 8.782 14 14l1.4 1.665c15.946 19.009 29.002 39.574 40.663 61.46l1.373 2.546c2.936 5.617 4.957 11.2 6.564 17.329l-2.937 1.766c-15.9 9.673-30.723 20.5-43.69 33.919-1.425 1.47-2.896 2.897-4.373 4.315h-2c-9.073-19.792-15.399-39.343-18-61l-.286-2.302C304.18 238.29 303.54 207.922 314 187M660 189h2q.973 5 1.938 10l.552 2.832.537 2.793.492 2.54c1.082 6.38 1.65 12.59 1.72 19.05l.029 2.317c.18 17.843-.305 34.978-4.268 52.468l-.519 2.38c-3.254 14.466-8.102 33.046-17.481 44.62l-1.984-2.203c-10.443-11.536-20.974-22.18-33.41-31.58-2.345-1.777-4.662-3.592-6.981-5.404L599 286c3.615-26.425 27.312-56.14 44-76q2.253-2.748 4.5-5.5l2.254-2.738c2.933-3.607 5.781-7.278 8.617-10.961zM432 392c14.397 7.613 24.047 19.36 29.129 34.945L462 430l.53 1.858c2.98 10.702 4.192 21.054 4.47 32.142l-1.68-2.105L463 459l-2.445-3.05C454.22 448.185 447.45 440.006 438 436c-2.252-.226-2.252-.226-4.633-.09l-2.695.06q-2.762.091-5.524.196c-9.8.204-17.611-1.845-25.171-8.217-5.574-5.497-7.791-11.304-8.977-18.949l-2.23.07-2.957.055-2.918.07c-3.023-.204-5.163-.926-7.895-2.195 1.655-6.069 6.148-10.142 11.285-13.488 2.212-1.252 4.416-2.428 6.715-3.512l2.148-1.113c11.216-3.488 26.393-1.745 36.852 3.113"/></svg>