<?xml version="1.0" encoding="UTF-8"?>
<svg version="1.1" xmlns="http://www.w3.org/2000/svg" width="1024" height="1024">
<style>
  :root {
    --fox-primary: #DF6D23;
    --fox-dark: #1B1512;
    --fox-light: #F4E7C5;
  }
</style>
<path d="M0 0 C1.64162109 -0.04253906 1.64162109 -0.04253906 3.31640625 -0.0859375 C7.22408436 0.4911664 8.67477627 1.57550124 11.4375 4.375 C17.17933924 12.71589148 21.19787315 21.81287559 24.4375 31.375 C24.67178711 32.05095215 24.90607422 32.7269043 25.14746094 33.42333984 C39.90585595 76.30712874 43.95616634 124.46165794 37.4375 169.375 C37.31391113 170.26848145 37.19032227 171.16196289 37.06298828 172.08251953 C33.50536083 197.05490813 26.27869998 221.81585384 16.31201172 244.9921875 C14.49408496 249.94555578 16.28814964 254.34058866 18.37890625 258.921875 C19.23881371 260.66312853 20.1135157 262.39712551 21 264.125 C21.72050537 265.54389526 21.72050537 265.54389526 22.45556641 266.99145508 C36.64099072 294.45206861 53.4275376 321.93149428 74.31982422 344.85375977 C75.4375 346.375 75.4375 346.375 75.625 349.0625 C72.51726627 355.11440252 65.49511867 357.42730611 59.625 360.125 C57.72605515 361.01454275 55.82762173 361.90517803 53.9296875 362.796875 C52.99479492 363.23451172 52.05990234 363.67214844 51.09667969 364.12304688 C29.2374929 374.41444513 9.11058927 385.95089146 -9.5625 401.375 C-10.20445312 401.90480469 -10.84640625 402.43460937 -11.5078125 402.98046875 C-12.86400585 404.10642462 -14.21420715 405.23959549 -15.5625 406.375 C-7.4441002 433.33124011 18.23331739 447.09609797 40.79736328 460.25878906 C76.53556465 481.14761946 108.91544284 506.90732383 129.41992188 543.55859375 C130.42432999 545.35149116 131.45356038 547.12843971 132.484375 548.90625 C142.44881871 566.45624952 148.57207898 585.87297154 152.625 605.5625 C152.79225586 606.37017822 152.95951172 607.17785645 153.13183594 608.01000977 C161.91296379 652.65344484 150.5486799 701.08069151 125.59375 738.73828125 C97.9415236 779.30058177 60.55036215 803.5533399 14.4375 819.375 C13.73512207 819.61943848 13.03274414 819.86387695 12.30908203 820.11572266 C7.08948876 821.88245109 1.82243213 823.21371121 -3.5625 824.375 C-5.15118896 824.71772949 -5.15118896 824.71772949 -6.77197266 825.06738281 C-43.34010554 832.54596319 -81.86167884 831.4620139 -118.5625 825.375 C-119.738125 825.18776367 -120.91375 825.00052734 -122.125 824.80761719 C-159.75635659 818.72822113 -195.50006109 806.49227039 -230.9375 792.75 C-255.9454743 783.05222588 -281.14972954 773.47305312 -307.5625 768.375 C-308.19889404 768.24689941 -308.83528809 768.11879883 -309.4909668 767.98681641 C-321.53683537 765.59426934 -333.17402336 764.89257257 -345.4375 765 C-346.32248169 765.00265869 -347.20746338 765.00531738 -348.1192627 765.00805664 C-361.76853547 765.05587784 -375.07600399 765.90006169 -388.609375 767.71875 C-394.90503056 768.51886676 -401.22366982 768.75468878 -407.5625 768.375 C-408.5625 767.375 -408.5625 767.375 -408.9296875 763.4453125 C-408.85291248 757.55690077 -406.51612943 753.30072191 -403.6875 748.25 C-403.19008301 747.33420166 -402.69266602 746.41840332 -402.18017578 745.47485352 C-391.19569035 725.55959473 -377.25772438 707.20456737 -361.54760742 690.78930664 C-359.01722615 688.11294985 -357.10559473 685.70817394 -355.5625 682.375 C-356.37332031 681.35664062 -357.18414062 680.33828125 -358.01953125 679.2890625 C-366.04439655 669.08502593 -373.09998928 658.62707785 -379.5625 647.375 C-380.28735596 646.12855713 -380.28735596 646.12855713 -381.02685547 644.85693359 C-399.14391836 613.52202006 -411.76735776 579.12692084 -417.5625 543.375 C-417.70075195 542.55692871 -417.83900391 541.73885742 -417.98144531 540.89599609 C-422.08388479 515.91556611 -422.2266383 489.43024199 -418.5625 464.375 C-418.46066406 463.63652832 -418.35882813 462.89805664 -418.25390625 462.13720703 C-416.02545356 446.23196987 -412.19574559 430.62063935 -407.08642578 415.39794922 C-406.0140854 412.14982071 -405.5625 409.8572225 -405.5625 406.375 C-406.0479126 406.12032959 -406.5333252 405.86565918 -407.03344727 405.60327148 C-421.4327209 397.99512679 -435.05283035 389.45812931 -448.5625 380.375 C-449.68398438 379.62452393 -449.68398438 379.62452393 -450.828125 378.85888672 C-455.44999377 375.75845549 -460.02387363 372.59599557 -464.5625 369.375 C-465.71492188 368.55733154 -465.71492188 368.55733154 -466.890625 367.72314453 C-493.93680205 348.42367305 -493.93680205 348.42367305 -496.58203125 341.8359375 C-496.55504687 338.43590582 -495.47556449 337.49069781 -493.125 335.0625 C-492.30128906 334.19882812 -491.47757813 333.33515625 -490.62890625 332.4453125 C-487.65792653 329.45130193 -484.65617832 326.48796596 -481.66088867 323.51831055 C-480.96842041 322.83164307 -480.27595215 322.14497559 -479.5625 321.4375 C-478.86165283 320.74374268 -478.16080566 320.04998535 -477.4387207 319.33520508 C-472.90436752 314.81362922 -468.71260199 310.16929495 -464.75390625 305.12890625 C-462.66228295 302.50039568 -460.49311113 299.97074771 -458.2824707 297.44311523 C-446.80695065 284.29663369 -436.73418981 270.14184279 -427.08691406 255.61376953 C-426.03366136 254.06695223 -424.93860884 252.54807455 -423.81152344 251.05419922 C-420.42396144 246.48724054 -420.42396144 246.48724054 -419.4296875 241.01171875 C-420.99367374 235.99078362 -422.80407005 231.09630023 -424.6875 226.1875 C-428.11247513 216.94541654 -431.02731142 207.68285018 -433.4375 198.125 C-433.71094238 197.06385986 -433.98438477 196.00271973 -434.26611328 194.90942383 C-438.99811392 175.48185094 -440.10629403 156.37309973 -440 136.4375 C-439.99695862 135.2281076 -439.99391724 134.01871521 -439.99078369 132.77267456 C-439.84392851 93.26177843 -435.7373275 34.13426371 -405.6875 4.25 C-400.97382436 1.42179462 -396.48221452 1.6624649 -391.18554688 2.95507812 C-388.66527339 3.78008194 -386.212312 4.70290254 -383.75 5.6875 C-382.39128784 6.22056763 -382.39128784 6.22056763 -381.00512695 6.7644043 C-349.10971367 19.69004748 -321.73661322 42.37501474 -296.5625 65.375 C-295.55765521 66.27514558 -294.55242772 67.17486407 -293.546875 68.07421875 C-276.73494922 83.21419774 -257.81196482 101.87607036 -247.5625 122.375 C-241.40490587 121.87926149 -235.30258894 121.20716409 -229.18359375 120.35546875 C-220.81645486 119.26705994 -212.55422431 119.0215926 -204.125 119.0625 C-203.39725372 119.06332581 -202.66950745 119.06415161 -201.91970825 119.06500244 C-185.24573692 119.10816806 -168.81935618 120.54789977 -152.5625 124.375 C-152.34464844 123.71371094 -152.12679688 123.05242187 -151.90234375 122.37109375 C-150.10974609 118.36257362 -147.68011481 114.99524973 -145.125 111.4375 C-144.58786377 110.68605713 -144.05072754 109.93461426 -143.49731445 109.16040039 C-131.00376618 91.79794837 -116.85787492 76.62602405 -101.8125 61.4375 C-100.96187988 60.57374756 -100.11125977 59.70999512 -99.23486328 58.82006836 C-93.32748323 52.90528272 -87.11290677 47.5636151 -80.5625 42.375 C-79.49073385 41.50539511 -78.41908652 40.63564369 -77.34765625 39.765625 C-57.83839667 24.4269245 -36.02908266 10.68970275 -12.5625 2.375 C-11.57121094 2.00246094 -10.57992188 1.62992187 -9.55859375 1.24609375 C-6.26522334 0.28856885 -3.42610507 0.04044988 0 0 Z " fill="var(--fox-primary)" transform="translate(687.5625,104.625)"/>
<path d="M0 0 C1.64162109 -0.04253906 1.64162109 -0.04253906 3.31640625 -0.0859375 C7.22408436 0.4911664 8.67477627 1.57550124 11.4375 4.375 C17.17933924 12.71589148 21.19787315 21.81287559 24.4375 31.375 C24.67178711 32.05095215 24.90607422 32.7269043 25.14746094 33.42333984 C39.90585595 76.30712874 43.95616634 124.46165794 37.4375 169.375 C37.31391113 170.26848145 37.19032227 171.16196289 37.06298828 172.08251953 C33.50536083 197.05490813 26.27869998 221.81585384 16.31201172 244.9921875 C14.49408496 249.94555578 16.28814964 254.34058866 18.37890625 258.921875 C19.23881371 260.66312853 20.1135157 262.39712551 21 264.125 C21.72050537 265.54389526 21.72050537 265.54389526 22.45556641 266.99145508 C36.64099072 294.45206861 53.4275376 321.93149428 74.31982422 344.85375977 C75.4375 346.375 75.4375 346.375 75.625 349.0625 C72.51726627 355.11440252 65.49511867 357.42730611 59.625 360.125 C57.72605515 361.01454275 55.82762173 361.90517803 53.9296875 362.796875 C52.99479492 363.23451172 52.05990234 363.67214844 51.09667969 364.12304688 C29.2374929 374.41444513 9.11058927 385.95089146 -9.5625 401.375 C-10.20445312 401.90480469 -10.84640625 402.43460937 -11.5078125 402.98046875 C-12.86400585 404.10642462 -14.21420715 405.23959549 -15.5625 406.375 C-7.4441002 433.33124011 18.23331739 447.09609797 40.79736328 460.25878906 C76.53556465 481.14761946 108.91544284 506.90732383 129.41992188 543.55859375 C130.42432999 545.35149116 131.45356038 547.12843971 132.484375 548.90625 C142.44881871 566.45624952 148.57207898 585.87297154 152.625 605.5625 C152.79225586 606.37017822 152.95951172 607.17785645 153.13183594 608.01000977 C161.91296379 652.65344484 150.5486799 701.08069151 125.59375 738.73828125 C97.9415236 779.30058177 60.55036215 803.5533399 14.4375 819.375 C13.73512207 819.61943848 13.03274414 819.86387695 12.30908203 820.11572266 C7.08948876 821.88245109 1.82243213 823.21371121 -3.5625 824.375 C-5.15118896 824.71772949 -5.15118896 824.71772949 -6.77197266 825.06738281 C-43.34010554 832.54596319 -81.86167884 831.4620139 -118.5625 825.375 C-119.738125 825.18776367 -120.91375 825.00052734 -122.125 824.80761719 C-159.75635659 818.72822113 -195.50006109 806.49227039 -230.9375 792.75 C-255.9454743 783.05222588 -281.14972954 773.47305312 -307.5625 768.375 C-308.19889404 768.24689941 -308.83528809 768.11879883 -309.4909668 767.98681641 C-321.53683537 765.59426934 -333.17402336 764.89257257 -345.4375 765 C-346.32248169 765.00265869 -347.20746338 765.00531738 -348.1192627 765.00805664 C-361.76853547 765.05587784 -375.07600399 765.90006169 -388.609375 767.71875 C-394.90503056 768.51886676 -401.22366982 768.75468878 -407.5625 768.375 C-408.5625 767.375 -408.5625 767.375 -408.9296875 763.4453125 C-408.85291248 757.55690077 -406.51612943 753.30072191 -403.6875 748.25 C-403.19008301 747.33420166 -402.69266602 746.41840332 -402.18017578 745.47485352 C-391.19569035 725.55959473 -377.25772438 707.20456737 -361.54760742 690.78930664 C-359.01722615 688.11294985 -357.10559473 685.70817394 -355.5625 682.375 C-356.37332031 681.35664062 -357.18414062 680.33828125 -358.01953125 679.2890625 C-366.04439655 669.08502593 -373.09998928 658.62707785 -379.5625 647.375 C-380.28735596 646.12855713 -380.28735596 646.12855713 -381.02685547 644.85693359 C-399.14391836 613.52202006 -411.76735776 579.12692084 -417.5625 543.375 C-417.70075195 542.55692871 -417.83900391 541.73885742 -417.98144531 540.89599609 C-422.08388479 515.91556611 -422.2266383 489.43024199 -418.5625 464.375 C-418.46066406 463.63652832 -418.35882813 462.89805664 -418.25390625 462.13720703 C-416.02545356 446.23196987 -412.19574559 430.62063935 -407.08642578 415.39794922 C-406.0140854 412.14982071 -405.5625 409.8572225 -405.5625 406.375 C-406.0479126 406.12032959 -406.5333252 405.86565918 -407.03344727 405.60327148 C-421.4327209 397.99512679 -435.05283035 389.45812931 -448.5625 380.375 C-449.68398438 379.62452393 -449.68398438 379.62452393 -450.828125 378.85888672 C-455.44999377 375.75845549 -460.02387363 372.59599557 -464.5625 369.375 C-465.71492188 368.55733154 -465.71492188 368.55733154 -466.890625 367.72314453 C-493.93680205 348.42367305 -493.93680205 348.42367305 -496.58203125 341.8359375 C-496.55504687 338.43590582 -495.47556449 337.49069781 -493.125 335.0625 C-492.30128906 334.19882812 -491.47757813 333.33515625 -490.62890625 332.4453125 C-487.65792653 329.45130193 -484.65617832 326.48796596 -481.66088867 323.51831055 C-480.96842041 322.83164307 -480.27595215 322.14497559 -479.5625 321.4375 C-478.86165283 320.74374268 -478.16080566 320.04998535 -477.4387207 319.33520508 C-472.90436752 314.81362922 -468.71260199 310.16929495 -464.75390625 305.12890625 C-462.66228295 302.50039568 -460.49311113 299.97074771 -458.2824707 297.44311523 C-446.80695065 284.29663369 -436.73418981 270.14184279 -427.08691406 255.61376953 C-426.03366136 254.06695223 -424.93860884 252.54807455 -423.81152344 251.05419922 C-420.42396144 246.48724054 -420.42396144 246.48724054 -419.4296875 241.01171875 C-420.99367374 235.99078362 -422.80407005 231.09630023 -424.6875 226.1875 C-428.11247513 216.94541654 -431.02731142 207.68285018 -433.4375 198.125 C-433.71094238 197.06385986 -433.98438477 196.00271973 -434.26611328 194.90942383 C-438.99811392 175.48185094 -440.10629403 156.37309973 -440 136.4375 C-439.99695862 135.2281076 -439.99391724 134.01871521 -439.99078369 132.77267456 C-439.84392851 93.26177843 -435.7373275 34.13426371 -405.6875 4.25 C-400.97382436 1.42179462 -396.48221452 1.6624649 -391.18554688 2.95507812 C-388.66527339 3.78008194 -386.212312 4.70290254 -383.75 5.6875 C-382.39128784 6.22056763 -382.39128784 6.22056763 -381.00512695 6.7644043 C-349.10971367 19.69004748 -321.73661322 42.37501474 -296.5625 65.375 C-295.55765521 66.27514558 -294.55242772 67.17486407 -293.546875 68.07421875 C-276.73494922 83.21419774 -257.81196482 101.87607036 -247.5625 122.375 C-241.40490587 121.87926149 -235.30258894 121.20716409 -229.18359375 120.35546875 C-220.81645486 119.26705994 -212.55422431 119.0215926 -204.125 119.0625 C-203.39725372 119.06332581 -202.66950745 119.06415161 -201.91970825 119.06500244 C-185.24573692 119.10816806 -168.81935618 120.54789977 -152.5625 124.375 C-152.34464844 123.71371094 -152.12679688 123.05242187 -151.90234375 122.37109375 C-150.10974609 118.36257362 -147.68011481 114.99524973 -145.125 111.4375 C-144.58786377 110.68605713 -144.05072754 109.93461426 -143.49731445 109.16040039 C-131.00376618 91.79794837 -116.85787492 76.62602405 -101.8125 61.4375 C-100.96187988 60.57374756 -100.11125977 59.70999512 -99.23486328 58.82006836 C-93.32748323 52.90528272 -87.11290677 47.5636151 -80.5625 42.375 C-79.49073385 41.50539511 -78.41908652 40.63564369 -77.34765625 39.765625 C-57.83839667 24.4269245 -36.02908266 10.68970275 -12.5625 2.375 C-11.57121094 2.00246094 -10.57992188 1.62992187 -9.55859375 1.24609375 C-6.26522334 0.28856885 -3.42610507 0.04044988 0 0 Z M-15.25 34.625 C-16.22815674 35.15311279 -16.22815674 35.15311279 -17.22607422 35.69189453 C-25.45217745 40.26238537 -33.01566924 45.77526264 -40.5625 51.375 C-41.48023193 52.05296631 -41.48023193 52.05296631 -42.41650391 52.74462891 C-49.82480226 58.24482266 -56.77392527 64.12856839 -63.5625 70.375 C-64.82946938 71.48359821 -66.10016556 72.5879553 -67.375 73.6875 C-91.52682211 94.84449617 -113.39643707 118.9866364 -131.3125 145.6875 C-131.71871582 146.29134521 -132.12493164 146.89519043 -132.54345703 147.51733398 C-134.62772399 150.69604402 -136.29736908 153.78821927 -137.5625 157.375 C-138.80902344 156.97667969 -140.05554688 156.57835937 -141.33984375 156.16796875 C-161.37516783 149.88676301 -180.55590855 147.14256603 -201.5625 147.125 C-202.29271362 147.12432526 -203.02292725 147.12365051 -203.77526855 147.12295532 C-215.28696229 147.13980001 -226.31618449 147.80516213 -237.5625 150.375 C-238.46516602 150.57851074 -239.36783203 150.78202148 -240.29785156 150.99169922 C-245.70980419 152.2256682 -251.10141123 153.52953236 -256.48730469 154.87207031 C-258.83382587 155.44075662 -261.18843842 155.93535897 -263.5625 156.375 C-263.98917969 155.64539063 -264.41585937 154.91578125 -264.85546875 154.1640625 C-276.54564147 134.64026888 -290.62075642 116.59928756 -306.140625 99.98046875 C-308.20949188 97.75476841 -310.21109558 95.49481617 -312.1875 93.1875 C-318.43606935 85.99940829 -325.3304197 79.55315905 -332.5625 73.375 C-333.58017055 72.48261797 -334.59703222 71.58931303 -335.61328125 70.6953125 C-362.24828837 45.90123841 -362.24828837 45.90123841 -394.5625 33.375 C-402.92763747 52.60619232 -407.09373109 72.74793963 -410.5625 93.375 C-410.75376465 94.48641357 -410.9450293 95.59782715 -411.14208984 96.74291992 C-412.71405612 106.94672772 -412.86896596 117.01033551 -412.82324219 127.31665039 C-412.81255461 130.17290665 -412.82318097 133.02852873 -412.8359375 135.88476562 C-412.86322321 172.01474397 -405.91795535 210.76939958 -386.58203125 241.81640625 C-385.5625 244.375 -385.5625 244.375 -385.98046875 246.6875 C-388.32920204 250.67744692 -391.16724457 254.20695817 -394.0625 257.8125 C-398.39660197 263.29233548 -402.66875098 268.7840204 -406.6875 274.5 C-419.06955432 292.06317966 -431.92051956 309.62686597 -446.5625 325.375 C-448.40401156 327.46877341 -450.23135833 329.57399309 -452.0546875 331.68359375 C-453.50388986 333.3092534 -455.006651 334.85175861 -456.5625 336.375 C-455.10497929 340.0044736 -453.31603723 341.53377219 -450.0859375 343.6796875 C-448.73773926 344.58799316 -448.73773926 344.58799316 -447.36230469 345.51464844 C-446.43836914 346.12856445 -445.51443359 346.74248047 -444.5625 347.375 C-442.86557032 348.54192263 -441.17023892 349.71117308 -439.4765625 350.8828125 C-392.65417825 382.96155743 -344.99896399 408.41903147 -291.83203125 428.2734375 C-271.68548546 435.80649375 -255.96291148 445.63744767 -239.2265625 459.046875 C-226.5130821 469.10237335 -213.27492766 477.89195277 -197.5625 482.375 C-196.94584473 482.55240723 -196.32918945 482.72981445 -195.69384766 482.91259766 C-191.46782839 483.82944536 -187.11967392 483.60233066 -182.8125 483.625 C-181.84828125 483.645625 -180.8840625 483.66625 -179.890625 483.6875 C-173.72326181 483.72101828 -169.17863029 482.96103209 -163.5625 480.375 C-162.26616379 479.30854885 -162.26616379 479.30854885 -162.5 476.8125 C-162.5309375 475.6059375 -162.5309375 475.6059375 -162.5625 474.375 C-163.66207031 473.82972656 -164.76164062 473.28445313 -165.89453125 472.72265625 C-187.91536153 461.58006625 -187.91536153 461.58006625 -193.5625 451.375 C-194.3978125 450.2303125 -194.3978125 450.2303125 -195.25 449.0625 C-197.01042185 445.45782669 -197.22946577 442.26946678 -196.5625 438.375 C-193.612481 432.10620962 -188.61891763 429.09860603 -182.4296875 426.46875 C-166.38744217 420.71884128 -148.5242749 420.19624843 -132.5625 426.375 C-130.54577025 427.68289101 -128.54199566 429.01141109 -126.5625 430.375 C-125.9025 430.375 -125.2425 430.375 -124.5625 430.375 C-124.47901783 428.16736029 -124.42223316 425.95871261 -124.375 423.75 C-124.32279297 421.90535156 -124.32279297 421.90535156 -124.26953125 420.0234375 C-124.40102459 414.94537247 -125.61972433 410.14013422 -126.73608398 405.20214844 C-128.01235148 399.29172918 -128.94793575 393.33456418 -129.87011719 387.36108398 C-130.18799949 385.30927601 -130.51552645 383.2591605 -130.84375 381.20898438 C-132.83444813 368.58040734 -133.74234852 356.09811542 -133.75 343.3125 C-133.76224609 342.23162109 -133.77449219 341.15074219 -133.78710938 340.03710938 C-133.81650709 323.68218321 -130.53273596 306.39563695 -118.5625 294.375 C-107.58576914 284.71973965 -96.67912374 283.51218429 -82.5625 284.375 C-73.79409666 285.53637793 -65.70930263 290.51146606 -59.98046875 297.23046875 C-58.875 298.875 -58.875 298.875 -57.5625 301.375 C-63.235642 303.82917612 -68.38089396 305.83746904 -74.5625 306.375 C-74.90023438 307.26703125 -75.23796875 308.1590625 -75.5859375 309.078125 C-76.03195312 310.24859375 -76.47796875 311.4190625 -76.9375 312.625 C-77.59878906 314.36523438 -77.59878906 314.36523438 -78.2734375 316.140625 C-81.17698141 323.42588063 -81.17698141 323.42588063 -85.5625 325.375 C-86.3875 325.99375 -87.2125 326.6125 -88.0625 327.25 C-95.57727819 332.29132105 -104.38627433 333.80226087 -113.26171875 334.1015625 C-114.02097656 334.19179688 -114.78023437 334.28203125 -115.5625 334.375 C-121.30686118 345.86372235 -118.95664461 364.93036794 -118.9375 377.5 C-118.9389502 378.48235626 -118.94040039 379.46471252 -118.94189453 380.47683716 C-118.93952429 395.05843217 -117.78384679 408.70739435 -114.97265625 423.03173828 C-113.27013534 432.75840237 -114.19558267 441.4891524 -118.5625 450.375 C-118.92859375 451.13167969 -119.2946875 451.88835937 -119.671875 452.66796875 C-123.79559298 459.85902017 -130.43028213 464.29764259 -136.95361328 469.15625 C-139.94620441 471.42317184 -142.74694031 473.89462599 -145.5625 476.375 C-144.98905063 479.24224686 -144.7010485 480.2364515 -142.5625 482.375 C-130.73646255 483.71019778 -119.69254508 477.46010745 -110.5625 470.375 C-97.23366605 458.92346661 -87.28234086 444.81063169 -77.15234375 430.58984375 C-63.14408323 410.94431458 -47.63027225 393.12460593 -28.21826172 378.625 C-26.63765716 377.43173911 -25.08552357 376.20104196 -23.53515625 374.96875 C-6.49043536 361.45581812 11.96250755 350.01608537 31.4375 340.375 C30.48165068 338.85260423 29.52256795 337.3322389 28.5625 335.8125 C27.59570312 334.28109375 27.59570312 334.28109375 26.609375 332.71875 C25.1835512 330.52359682 23.71553871 328.35516657 22.203125 326.21875 C15.98669961 317.42626483 11.20545217 308.1757587 6.47949219 298.50927734 C2.72227118 290.8547393 -1.23050772 283.35446235 -5.4375 275.9375 C-5.94837158 275.03386719 -6.45924316 274.13023437 -6.9855957 273.19921875 C-9.07428905 269.54916705 -11.1637782 265.95907516 -13.53613281 262.48388672 C-14.18678711 261.52885254 -14.83744141 260.57381836 -15.5078125 259.58984375 C-16.11383301 258.73382568 -16.71985352 257.87780762 -17.34423828 256.99584961 C-18.90268293 253.64316358 -18.52633014 251.89625229 -17.5625 248.375 C-16.41365684 245.89798207 -15.22717044 243.52443575 -13.9375 241.125 C16.60840085 181.8984392 19.37159278 106.84182008 -0.28125 43.71484375 C-1.62281539 39.56854141 -3.05525338 35.46380733 -4.5625 31.375 C-8.98004941 31.375 -11.49376814 32.58034436 -15.25 34.625 Z M-377.5625 418.375 C-382.39954605 431.14589779 -385.63287456 443.74799498 -388.14404297 457.15332031 C-388.49144798 458.9977693 -388.85498799 460.83917062 -389.22265625 462.6796875 C-394.13518461 487.78816577 -393.7534478 517.37332272 -388.5625 542.375 C-388.35850586 543.36177734 -388.15451172 544.34855469 -387.94433594 545.36523438 C-378.39640634 590.20019928 -358.13587002 629.03890645 -330.5625 665.375 C-324.30497406 661.22453315 -324.30497406 661.22453315 -318.10546875 656.98828125 C-290.85817023 638.19676267 -261.37380928 626.72154051 -228.5625 622.375 C-227.87559082 622.27856201 -227.18868164 622.18212402 -226.48095703 622.08276367 C-218.39556784 621.10115372 -210.26634927 621.18892322 -202.13427734 621.18969727 C-199.59585333 621.1875285 -197.05787776 621.1693703 -194.51953125 621.15039062 C-177.98983902 621.09133449 -162.06280686 623.1244313 -145.8125 626 C-143.23518317 626.45512142 -140.65707996 626.9058172 -138.078125 627.3515625 C-136.96727539 627.54830566 -135.85642578 627.74504883 -134.71191406 627.94775391 C-131.61852684 628.36739946 -128.67977148 628.45190444 -125.5625 628.375 C-124.83546875 626.76044922 -124.83546875 626.76044922 -124.09375 625.11328125 C-112.76643262 600.28855292 -98.58385169 579.6626303 -72.39501953 569.34057617 C-67.287985 567.59964171 -62.04862751 566.65512957 -56.75 565.6875 C-55.66396484 565.47544922 -54.57792969 565.26339844 -53.45898438 565.04492188 C-45.84456871 563.61241756 -38.295271 562.82156376 -30.5625 562.375 C-31.48289062 562.89707031 -32.40328125 563.41914062 -33.3515625 563.95703125 C-60.34777183 579.53605625 -82.09228977 601.48977376 -94.5625 630.375 C-95.35530041 633.22445809 -95.35530041 633.22445809 -95.5625 635.375 C-89.87207192 637.91620487 -84.08310284 639.98703959 -78.1875 642 C-70.79107992 644.54099165 -63.42472044 647.1453983 -56.08520508 649.84643555 C-22.56593058 662.13051 19.94360333 675.24857822 54.39453125 659.62109375 C58.91519972 657.47152714 63.26930888 655.15379408 67.4375 652.375 C56.95467731 670.01984576 44.79766478 679.12429083 24.88671875 684.6484375 C-10.02939702 692.00336109 -46.79950802 683.03958161 -79.93652344 672.22412109 C-121.72660349 658.71111455 -162.51314213 650.19630562 -206.5625 649.375 C-208.16146513 649.33359496 -209.76042453 649.2919672 -211.359375 649.25 C-260.71484091 648.46967643 -304.97060798 677.05116903 -339.84375 709.8671875 C-341.76468912 711.63908824 -343.67814565 713.31663597 -345.6953125 714.96875 C-352.89342092 721.00966932 -358.16535513 728.7489044 -363.5625 736.375 C-360.72196149 737.79526926 -358.88575729 736.70177792 -355.9453125 735.921875 C-351.52214919 734.90672276 -347.08531806 734.62211712 -342.5625 734.375 C-341.49644531 734.30925781 -340.43039062 734.24351562 -339.33203125 734.17578125 C-293.64840579 732.70538709 -244.26542613 755.76839095 -202.28833008 771.20629883 C-175.40162577 781.1930244 -175.40162577 781.1930244 -147.8125 788.9375 C-146.01510376 789.36228638 -146.01510376 789.36228638 -144.18139648 789.7956543 C-103.8474453 799.1090784 -63.81711182 803.90115328 -22.5625 797.375 C-21.83579102 797.26285156 -21.10908203 797.15070313 -20.36035156 797.03515625 C-9.15590647 795.24244504 1.66875022 791.87792802 12.4375 788.375 C13.13488281 788.14973633 13.83226562 787.92447266 14.55078125 787.69238281 C56.89768127 773.72291727 90.12768243 744.16531982 110.27734375 704.70556641 C116.67091476 691.86191555 120.17173204 678.29061716 123.4375 664.375 C123.63617676 663.582146 123.83485352 662.78929199 124.03955078 661.97241211 C125.75277024 654.53850945 125.82276744 647.16647556 125.8125 639.5625 C125.81195618 638.88069672 125.81141235 638.19889343 125.81085205 637.49642944 C125.766793 625.4300647 124.53227805 614.05702688 121.4375 602.375 C121.21787598 601.52905273 120.99825195 600.68310547 120.77197266 599.81152344 C117.6911662 588.19908523 113.70853588 577.16845149 108.4375 566.375 C108.09847656 565.67777832 107.75945312 564.98055664 107.41015625 564.26220703 C100.7390675 550.72148522 92.83263078 538.64490074 82.50390625 527.59765625 C80.6463233 525.59961334 78.91928749 523.54372803 77.1875 521.4375 C61.27264935 503.30112558 38.54655902 491.4542359 17.64111328 480.14794922 C4.69158316 473.12759233 -6.8738044 465.635434 -17.5625 455.375 C-18.34496094 454.64410156 -19.12742187 453.91320312 -19.93359375 453.16015625 C-27.24758753 446.14217571 -32.73630789 438.25519348 -37.5625 429.375 C-43.9458154 435.67880791 -49.955285 442.33122524 -55.8125 449.125 C-59.29414318 453.13717928 -62.92980189 457.00024809 -66.5625 460.875 C-71.8541906 466.52076086 -77.11662834 472.17563107 -82.02734375 478.16015625 C-85.82586637 482.74458011 -89.99767402 486.56279766 -94.5625 490.375 C-95.67238281 491.36886719 -95.67238281 491.36886719 -96.8046875 492.3828125 C-107.3992162 501.5184225 -120.44834488 505.34606757 -133.72949219 508.88623047 C-135.22249051 509.28433684 -136.70984979 509.70354378 -138.1953125 510.12890625 C-144.73510231 511.75815702 -151.35645923 511.51479008 -158.05224609 511.38989258 C-158.84840332 511.37595459 -159.64456055 511.3620166 -160.46484375 511.34765625 C-161.18148193 511.32968994 -161.89812012 511.31172363 -162.63647461 511.29321289 C-164.78426594 511.29575851 -164.78426594 511.29575851 -167.5625 512.375 C-197.60697204 514.62290942 -223.14374181 506.45714776 -246.125 487.0625 C-253.87578834 480.37860281 -261.34205476 473.36656954 -268.77734375 466.3359375 C-279.06185406 456.65557192 -289.99034263 448.11501886 -301.5 439.9375 C-302.54655762 439.19306641 -302.54655762 439.19306641 -303.61425781 438.43359375 C-304.28682617 437.96179688 -304.95939453 437.49 -305.65234375 437.00390625 C-306.53200806 436.3862439 -306.53200806 436.3862439 -307.42944336 435.75610352 C-313.57396542 431.77767141 -318.01244684 429.74182204 -325.2578125 428.8828125 C-326.95185016 428.65335862 -328.64585957 428.42369604 -330.33984375 428.19384766 C-331.21495605 428.080672 -332.09006836 427.96749634 -332.99169922 427.85089111 C-348.28185382 425.86069235 -362.9433926 423.42719153 -377.5625 418.375 Z " fill="var(--fox-dark)" transform="translate(687.5625,104.625)"/>
<path d="M0 0 C1.051875 0.36351562 2.10375 0.72703125 3.1875 1.1015625 C12.28298223 4.03820272 21.26337763 6.15217868 30.73828125 7.3828125 C31.60194305 7.49779083 32.46560486 7.61276917 33.35543823 7.73123169 C37.71012095 8.3044343 42.06372422 8.83017081 46.43164062 9.29150391 C58.67651039 10.7467603 67.15055345 14.66376842 77 22 C77.60076859 22.43931351 78.20153717 22.87862701 78.82051086 23.33125305 C82.63191902 26.12375986 86.34260919 29.01088437 90 32 C90.53189941 32.43425293 91.06379883 32.86850586 91.61181641 33.31591797 C101.18182854 41.17935934 110.25592608 49.56390061 119.25 58.07421875 C142.46073215 79.93869356 167.48023495 94.84070562 200.375 94.1875 C201.70831784 94.17239296 203.04165267 94.15871542 204.375 94.14648438 C207.58378565 94.11160627 210.7916563 94.06260026 214 94 C211.35574539 99.86833372 208.58096544 104.0142671 203.9375 108.4375 C203.36749268 108.9946167 202.79748535 109.5517334 202.21020508 110.12573242 C197.84317694 114.33742372 193.23146195 118.1826548 188.48828125 121.96484375 C180.9936735 128.09465637 174.96939038 135.41836401 169 143 C168.25621094 143.92683594 167.51242187 144.85367188 166.74609375 145.80859375 C153.40970501 162.90236506 143.16930531 183.65862036 139 205 C138.37246826 205.1451001 137.74493652 205.2902002 137.09838867 205.43969727 C116.91213027 210.15944636 98.26989482 216.15236296 80 226 C78.84242188 226.61488281 77.68484375 227.22976563 76.4921875 227.86328125 C68.78249728 232.10448897 61.66605037 236.90968782 54.59594727 242.13964844 C53.91072998 242.64012695 53.2255127 243.14060547 52.51953125 243.65625 C51.91214111 244.10806641 51.30475098 244.55988281 50.67895508 245.02539062 C49 246 49 246 46 246 C44.67236328 244.6809082 44.67236328 244.6809082 43.3203125 242.80078125 C42.81040771 242.09735596 42.30050293 241.39393066 41.77514648 240.66918945 C41.23059814 239.89148193 40.6860498 239.11377441 40.125 238.3125 C39.55273682 237.50449951 38.98047363 236.69649902 38.39086914 235.86401367 C12.21769466 198.45995973 -6.5215059 157.43222155 -13 112 C-13.1038501 111.27546631 -13.2077002 110.55093262 -13.31469727 109.80444336 C-14.27347769 101.8832326 -14.18608097 93.91088614 -14.18530273 85.9440918 C-14.18747405 83.46710617 -14.20564152 80.99057824 -14.22460938 78.51367188 C-14.30616211 55.41080235 -10.24382881 33.17400147 -4 11 C-3.68546875 9.88238281 -3.3709375 8.76476562 -3.046875 7.61328125 C-1.17253521 1.17253521 -1.17253521 1.17253521 0 0 Z " fill="var(--fox-light)" transform="translate(310,523)"/>
<path d="M0 0 C8.67766946 -0.54064652 14.91488165 -0.43362237 21.81933594 5.15771484 C23.60233639 6.27582167 25.3947734 7.37896412 27.19433594 8.47021484 C49.24081083 22.54698067 62.7076924 42.19858128 69.81933594 67.15771484 C69.81933594 67.48771484 69.81933594 67.81771484 69.81933594 68.15771484 C62.12061509 67.79586249 54.46743621 67.2475286 46.80371094 66.42333984 C29.71028875 64.596645 13.03776217 63.74508204 -4.18066406 64.15771484 C-3.16488281 64.64240234 -2.14910156 65.12708984 -1.10253906 65.62646484 C26.5542428 79.01291403 53.76019745 99.82009805 64.22558594 129.81787109 C64.81933594 132.15771484 64.81933594 132.15771484 64.81933594 136.15771484 C58.1226903 135.62602137 52.34068872 134.28861932 46.00683594 132.09521484 C45.0176416 131.75941406 44.02844727 131.42361328 43.00927734 131.07763672 C28.18144634 125.9848546 13.47188235 120.5444397 -1.25097656 115.15771484 C-2.14796768 114.83000092 -3.0449588 114.50228699 -3.96913147 114.16464233 C-8.59765107 112.47282092 -13.22281116 110.77258136 -17.84326172 109.05883789 C-28.90061746 104.97278448 -39.97385436 101.21712549 -51.30566406 97.97021484 C-52.78037282 97.54311228 -54.25506329 97.11594658 -55.72973633 96.6887207 C-85.84687294 88.00313305 -111.92602118 82.87725006 -143.18066406 88.15771484 C-140.34935197 82.49509066 -136.70860027 78.20965748 -132.41113281 73.57568359 C-130.57474529 71.58492374 -128.83466321 69.56293299 -127.11816406 67.47021484 C-123.82041586 63.60790648 -120.05626177 60.42474762 -116.18066406 57.15771484 C-114.80974609 55.95501953 -114.80974609 55.95501953 -113.41113281 54.72802734 C-99.37315277 42.48015567 -83.98724719 31.97905092 -68.18066406 22.15771484 C-67.59397949 21.78807617 -67.00729492 21.4184375 -66.40283203 21.03759766 C-46.17258754 8.39005212 -23.67622033 1.71236435 0 0 Z " fill="var(--fox-light)" transform="translate(467.1806640625,753.84228515625)"/>
<path d="M0 0 C0.93996826 0.52762939 0.93996826 0.52762939 1.89892578 1.06591797 C16.40432344 9.28453518 29.47878587 19.02561987 42 30 C43.22396484 31.05574219 43.22396484 31.05574219 44.47265625 32.1328125 C49.91015478 36.90764427 55.06011381 41.95977317 60.1875 47.0625 C60.85305908 47.72338623 61.51861816 48.38427246 62.2043457 49.06518555 C66.67144736 53.54672766 70.8908159 58.18932345 75 63 C75.47300537 63.55131592 75.94601074 64.10263184 76.43334961 64.6706543 C77.75238167 66.21365026 79.06470644 67.76207979 80.375 69.3125 C80.84558838 69.86663574 81.31617676 70.42077148 81.80102539 70.99169922 C84.75419809 74.48122276 87.60721611 78.03449467 90.4375 81.625 C97.65257593 90.46057427 106.16750297 97.70288205 115.5 104.23828125 C117.65555517 105.75727403 119.6962415 107.34902603 121.75 109 C127.63520862 113.47572588 134.44268151 116.635959 141 120 C141.140625 122.390625 141.140625 122.390625 141 125 C132.73224174 131.43047864 119.84894063 129.64993931 110 129 C105.34563431 128.21560944 101.31332115 126.89516196 97 125 C95.87722656 124.51402344 94.75445312 124.02804687 93.59765625 123.52734375 C82.03845145 118.12453311 72.2987082 110.61137656 62.31835938 102.76025391 C44.80851312 88.99356139 27.08967148 79.22991204 6.16384888 71.63369751 C-9.46773721 65.94796732 -24.90488057 60.00483535 -40 53 C-40.98887207 52.54592773 -41.97774414 52.09185547 -42.99658203 51.62402344 C-71.16001472 38.63767365 -97.07714793 22.62540789 -122.875 5.5 C-123.86749756 4.84153076 -124.85999512 4.18306152 -125.88256836 3.50463867 C-131.38402774 -0.17161187 -136.76158827 -3.95684211 -142 -8 C-139.81967606 -11.27048592 -139.42812223 -11.4729473 -135.87890625 -12.5 C-135.03706787 -12.7460498 -134.19522949 -12.99209961 -133.32788086 -13.24560547 C-132.41530518 -13.49455566 -131.50272949 -13.74350586 -130.5625 -14 C-129.60802979 -14.26055176 -128.65355957 -14.52110352 -127.67016602 -14.78955078 C-124.78639751 -15.55444185 -121.89682184 -16.28626067 -119 -17 C-118.25073242 -17.1865918 -117.50146484 -17.37318359 -116.72949219 -17.56542969 C-78.3995665 -26.57682939 -33.93682106 -19.23357804 0 0 Z " fill="var(--fox-light)" transform="translate(384,459)"/>
<path d="M0 0 C2.5163566 0.01075575 5.03200427 0.00002581 7.54833984 -0.01269531 C16.02394818 -0.01895823 24.10392465 0.22275414 32.38818359 2.26074219 C30.32922498 4.47911681 28.39703155 5.95323742 25.72021484 7.35449219 C25.0001123 7.73911621 24.28000977 8.12374023 23.53808594 8.52001953 C22.76674316 8.92945801 21.99540039 9.33889648 21.20068359 9.76074219 C6.29803216 17.86905364 -7.17812866 27.94518366 -20.61181641 38.26074219 C-21.53736328 38.96972656 -22.46291016 39.67871094 -23.41650391 40.40917969 C-30.14003547 45.67200791 -36.4167859 51.3947592 -42.61181641 57.26074219 C-43.54251953 58.13730469 -44.47322266 59.01386719 -45.43212891 59.91699219 C-55.95424086 70.10935134 -64.32267445 81.77621862 -72.83691406 93.63989258 C-80.25780744 103.97274009 -87.86870838 113.99150022 -96.61181641 123.26074219 C-97.32982422 124.04320312 -98.04783203 124.82566406 -98.78759766 125.63183594 C-107.6502012 134.96669189 -119.31778125 143.18196898 -132.61181641 143.69824219 C-135.21044834 143.69346529 -136.28611489 143.49027753 -138.42431641 141.98339844 C-139.61181641 140.26074219 -139.61181641 140.26074219 -139.47119141 138.23730469 C-137.51330676 133.73416999 -132.33166854 130.785653 -128.46728516 127.96777344 C-114.34466295 117.62585033 -109.6176252 106.78765869 -106.79931641 89.76074219 C-102.04315051 61.52967106 -87.99222704 34.58409439 -64.42431641 17.63574219 C-44.53952444 4.13728549 -23.63734843 -0.12010378 0 0 Z " fill="var(--fox-light)" transform="translate(681.61181640625,443.7392578125)"/>
<path d="M0 0 C5.25878367 4.29288463 9.67046109 8.78235055 14 14 C14.69270996 14.82419434 14.69270996 14.82419434 15.39941406 15.66503906 C31.34558142 34.67351524 44.40225984 55.23857271 56.0625 77.125 C56.51560547 77.96506592 56.96871094 78.80513184 57.43554688 79.6706543 C60.3718773 85.28766725 62.39267219 90.87150378 64 97 C62.5459375 97.87398437 62.5459375 97.87398437 61.0625 98.765625 C45.16287148 108.43878356 30.34012502 119.26531754 17.37207031 132.68457031 C15.94757741 134.15559837 14.47693895 135.58163653 13 137 C12.34 137 11.68 137 11 137 C1.92689268 117.20826189 -4.39900349 97.65747186 -7 76 C-7.0942627 75.24041992 -7.18852539 74.48083984 -7.28564453 73.69824219 C-9.82038472 51.28914378 -10.46115326 20.92230652 0 0 Z " fill="var(--fox-dark)" transform="translate(314,187)"/>
<path d="M0 0 C0.66 0 1.32 0 2 0 C2.65014606 3.33250685 3.2943192 6.66614243 3.9375 10 C4.21110352 11.40185547 4.21110352 11.40185547 4.49023438 12.83203125 C4.66748047 13.75371094 4.84472656 14.67539063 5.02734375 15.625 C5.18968506 16.46289062 5.35202637 17.30078125 5.51928711 18.1640625 C6.60078657 24.54430514 7.16943196 30.75486712 7.23828125 37.21484375 C7.25290405 38.36186516 7.25290405 38.36186516 7.26782227 39.53205872 C7.44826019 57.37500166 6.96263299 74.5102137 3 92 C2.82871582 92.78568359 2.65743164 93.57136719 2.48095703 94.38085938 C-0.77286161 108.84644312 -5.6214528 127.4262581 -15 139 C-15.65484375 138.27296875 -16.3096875 137.5459375 -16.984375 136.796875 C-27.42723756 125.26108714 -37.9582007 114.61684656 -50.39306641 105.21777344 C-52.73905899 103.43992309 -55.05606271 101.62542115 -57.375 99.8125 C-58.58303982 98.87462181 -59.79123955 97.93694924 -61 97 C-57.38456922 70.57545441 -33.68800572 40.86010598 -17 21 C-15.49826072 19.16809109 -13.99833423 17.33469497 -12.5 15.5 C-11.75621094 14.59636719 -11.01242187 13.69273437 -10.24609375 12.76171875 C-7.3129542 9.15523239 -4.46457057 5.48428056 -1.62890625 1.80078125 C-1.09136719 1.20652344 -0.55382812 0.61226562 0 0 Z " fill="var(--fox-dark)" transform="translate(660,189)"/>
<path d="M0 0 C14.3971759 7.61316631 24.04664775 19.35971978 29.12890625 34.9453125 C29.41636719 35.95335937 29.70382812 36.96140625 30 38 C30.17515137 38.61327148 30.35030273 39.22654297 30.53076172 39.85839844 C33.50919989 50.5599658 34.72245047 60.9118962 35 72 C34.44570313 71.30519531 33.89140625 70.61039062 33.3203125 69.89453125 C32.55460937 68.93933594 31.78890625 67.98414063 31 67 C30.19304687 65.99324219 29.38609375 64.98648438 28.5546875 63.94921875 C22.22147529 56.18581217 15.45124551 48.00689075 6 44 C3.74774182 43.77441033 3.74774182 43.77441033 1.3671875 43.91015625 C0.03300781 43.94012695 0.03300781 43.94012695 -1.328125 43.97070312 C-3.16943005 44.03113702 -5.01059226 44.09612206 -6.8515625 44.16601562 C-16.65113835 44.37017346 -24.46319855 42.32065688 -32.0234375 35.94921875 C-37.59731865 30.45244663 -39.81424331 24.64547598 -41 17 C-41.73605469 17.02320313 -42.47210938 17.04640625 -43.23046875 17.0703125 C-44.20628906 17.08835937 -45.18210937 17.10640625 -46.1875 17.125 C-47.15042969 17.14820313 -48.11335938 17.17140625 -49.10546875 17.1953125 C-52.12812778 16.9913544 -54.26769985 16.26874632 -57 15 C-55.34484812 8.93110977 -50.85247343 4.85776475 -45.71484375 1.51171875 C-43.50278798 0.25982074 -41.29870285 -0.91562958 -39 -2 C-38.29101562 -2.36738281 -37.58203125 -2.73476563 -36.8515625 -3.11328125 C-25.63560358 -6.60098355 -10.45916837 -4.85808367 0 0 Z " fill="var(--fox-dark)" transform="translate(432,392)"/>
</svg>
